<svg width="962" height="1091" viewBox="0 0 962 1091" fill="none" xmlns="http://www.w3.org/2000/svg">
<path d="M0.0642571 0L312.462 165.489L225.621 303.498L0 183.979L0.0642571 0Z" fill="url(#paint0_linear_3_23)"/>
<path d="M723.143 567.054L410.745 401.566L497.587 263.556L723.207 383.076L723.143 567.054Z" fill="url(#paint1_linear_3_23)"/>
<path d="M312.462 165.489L497.587 263.556L410.745 401.566L225.621 303.498L312.462 165.489Z" fill="url(#paint2_linear_3_23)"/>
<path d="M962 294.202L962 601.538H788.317V379.573L962 294.202Z" fill="url(#paint3_linear_3_23)"/>
<path d="M788.317 1091V783.664L962 783.664V1005.63L788.317 1091Z" fill="url(#paint4_linear_3_23)"/>
<path d="M962 601.538L962 783.664L788.317 783.664V601.538H962Z" fill="url(#paint5_linear_3_23)"/>
<path d="M0.876438 260.593L313.274 426.082L226.433 564.091L0.812181 444.572L0.876438 260.593Z" fill="url(#paint6_linear_3_23)"/>
<path d="M723.955 827.648L411.557 662.159L498.399 524.149L724.019 643.669L723.955 827.648Z" fill="url(#paint7_linear_3_23)"/>
<path d="M313.274 426.082L498.399 524.149L411.557 662.159L226.433 564.091L313.274 426.082Z" fill="url(#paint8_linear_3_23)"/>
<path d="M0.876438 521.187L313.274 686.675L226.433 824.685L0.812181 705.165L0.876438 521.187Z" fill="url(#paint9_linear_3_23)"/>
<path d="M723.955 1088.24L411.557 922.752L498.399 784.743L724.019 904.262L723.955 1088.24Z" fill="url(#paint10_linear_3_23)"/>
<path d="M313.274 686.675L498.399 784.743L411.557 922.752L226.433 824.685L313.274 686.675Z" fill="url(#paint11_linear_3_23)"/>
<path d="M614.634 259.552L768.277 182.835L918.691 262.515L765.048 339.232L614.634 259.552Z" fill="url(#paint12_linear_3_23)"/>
<defs>
<linearGradient id="paint0_linear_3_23" x1="481" y1="0" x2="481" y2="1091" gradientUnits="userSpaceOnUse">
<stop stop-color="#007FFF"/>
<stop offset="1" stop-color="#0059B2"/>
</linearGradient>
<linearGradient id="paint1_linear_3_23" x1="481" y1="0" x2="481" y2="1091" gradientUnits="userSpaceOnUse">
<stop stop-color="#007FFF"/>
<stop offset="1" stop-color="#0059B2"/>
</linearGradient>
<linearGradient id="paint2_linear_3_23" x1="481" y1="0" x2="481" y2="1091" gradientUnits="userSpaceOnUse">
<stop stop-color="#007FFF"/>
<stop offset="1" stop-color="#0059B2"/>
</linearGradient>
<linearGradient id="paint3_linear_3_23" x1="481" y1="0" x2="481" y2="1091" gradientUnits="userSpaceOnUse">
<stop stop-color="#007FFF"/>
<stop offset="1" stop-color="#0059B2"/>
</linearGradient>
<linearGradient id="paint4_linear_3_23" x1="481" y1="0" x2="481" y2="1091" gradientUnits="userSpaceOnUse">
<stop stop-color="#007FFF"/>
<stop offset="1" stop-color="#0059B2"/>
</linearGradient>
<linearGradient id="paint5_linear_3_23" x1="481" y1="0" x2="481" y2="1091" gradientUnits="userSpaceOnUse">
<stop stop-color="#007FFF"/>
<stop offset="1" stop-color="#0059B2"/>
</linearGradient>
<linearGradient id="paint6_linear_3_23" x1="481" y1="0" x2="481" y2="1091" gradientUnits="userSpaceOnUse">
<stop stop-color="#007FFF"/>
<stop offset="1" stop-color="#0059B2"/>
</linearGradient>
<linearGradient id="paint7_linear_3_23" x1="481" y1="0" x2="481" y2="1091" gradientUnits="userSpaceOnUse">
<stop stop-color="#007FFF"/>
<stop offset="1" stop-color="#0059B2"/>
</linearGradient>
<linearGradient id="paint8_linear_3_23" x1="481" y1="0" x2="481" y2="1091" gradientUnits="userSpaceOnUse">
<stop stop-color="#007FFF"/>
<stop offset="1" stop-color="#0059B2"/>
</linearGradient>
<linearGradient id="paint9_linear_3_23" x1="481" y1="0" x2="481" y2="1091" gradientUnits="userSpaceOnUse">
<stop stop-color="#007FFF"/>
<stop offset="1" stop-color="#0059B2"/>
</linearGradient>
<linearGradient id="paint10_linear_3_23" x1="481" y1="0" x2="481" y2="1091" gradientUnits="userSpaceOnUse">
<stop stop-color="#007FFF"/>
<stop offset="1" stop-color="#0059B2"/>
</linearGradient>
<linearGradient id="paint11_linear_3_23" x1="481" y1="0" x2="481" y2="1091" gradientUnits="userSpaceOnUse">
<stop stop-color="#007FFF"/>
<stop offset="1" stop-color="#0059B2"/>
</linearGradient>
<linearGradient id="paint12_linear_3_23" x1="481" y1="0" x2="481" y2="1091" gradientUnits="userSpaceOnUse">
<stop stop-color="#007FFF"/>
<stop offset="1" stop-color="#0059B2"/>
</linearGradient>
</defs>
</svg>
