<svg width="28" height="27" viewBox="0 0 28 27" fill="none" xmlns="http://www.w3.org/2000/svg">
<path d="M3.45079 9.32926V19.9001C3.45079 21.9643 4.91746 22.8117 6.69919 21.7905L9.25227 20.3347C9.80635 20.0196 10.7298 19.987 11.3056 20.2804L17.0093 23.1377C17.5851 23.4201 18.5086 23.3984 19.0626 23.0833L23.7668 20.389C24.3644 20.0414 24.8641 19.194 24.8641 18.4986V7.92778C24.8641 5.86359 23.3975 5.01618 21.6157 6.03741L19.0626 7.49322C18.5086 7.80828 17.5851 7.84087 17.0093 7.54754L11.3056 4.70112C10.7298 4.41865 9.80635 4.44038 9.25227 4.75544L4.54807 7.44976C3.93968 7.79741 3.45079 8.64482 3.45079 9.32926Z" stroke="#292D32" stroke-width="1.5" stroke-linecap="round" stroke-linejoin="round"/>
<path d="M10.2626 5.22266V19.3461" stroke="#292D32" stroke-width="1.5" stroke-linecap="round" stroke-linejoin="round"/>
<path d="M18.0523 8.06909V22.6054" stroke="#292D32" stroke-width="1.5" stroke-linecap="round" stroke-linejoin="round"/>
</svg>
