<svg width="28" height="27" viewBox="0 0 28 27" fill="none" xmlns="http://www.w3.org/2000/svg">
<path d="M14.1738 12.6863C14.0651 12.6755 13.9347 12.6755 13.8152 12.6863C11.2296 12.5994 9.17622 10.4809 9.17622 7.87351C9.17622 5.21178 11.3273 3.0498 13.9999 3.0498C16.6617 3.0498 18.8236 5.21178 18.8236 7.87351C18.8128 10.4809 16.7594 12.5994 14.1738 12.6863Z" stroke="#292D32" stroke-width="1.5" stroke-linecap="round" stroke-linejoin="round"/>
<path d="M8.74166 16.6952C6.11252 18.4552 6.11252 21.3234 8.74166 23.0725C11.7293 25.0715 16.6291 25.0715 19.6167 23.0725C22.2459 21.3125 22.2459 18.4443 19.6167 16.6952C16.6399 14.7071 11.7402 14.7071 8.74166 16.6952Z" stroke="#292D32" stroke-width="1.5" stroke-linecap="round" stroke-linejoin="round"/>
</svg>
