<svg width="27" height="27" viewBox="0 0 27 27" fill="none" xmlns="http://www.w3.org/2000/svg">
<path d="M19.1862 25.2118C18.6104 25.2118 17.8716 25.0271 16.9482 24.4839L13.6998 22.5609C13.363 22.3654 12.7111 22.3654 12.3852 22.5609L9.12594 24.4839C7.20298 25.6246 6.0731 25.1683 5.56248 24.7989C5.06273 24.4296 4.28051 23.4844 4.79112 21.3115L5.56248 17.9762C5.6494 17.6286 5.47557 17.031 5.21483 16.7703L2.52051 14.076C1.17335 12.7288 1.28199 11.5772 1.46668 11.0123C1.65137 10.4473 2.23804 9.44783 4.10668 9.13277L7.57236 8.55697C7.89828 8.50265 8.36545 8.15499 8.50668 7.86166L10.4296 4.0266C11.2988 2.27746 12.4395 2.01672 13.0371 2.01672C13.6346 2.01672 14.7753 2.27746 15.6445 4.0266L17.5566 7.8508C17.7087 8.14413 18.1758 8.49178 18.5017 8.54611L21.9674 9.12191C23.8469 9.43697 24.4336 10.4365 24.6074 11.0014C24.7812 11.5664 24.8899 12.718 23.5536 14.0651L20.8593 16.7703C20.5985 17.031 20.4356 17.6177 20.5116 17.9762L21.283 21.3115C21.7827 23.4844 21.0114 24.4296 20.5116 24.7989C20.24 24.9945 19.8054 25.2118 19.1862 25.2118ZM13.0371 20.7792C13.5694 20.7792 14.1017 20.9096 14.5254 21.1594L17.7738 23.0824C18.719 23.6473 19.3166 23.6473 19.5447 23.4844C19.7729 23.3214 19.9358 22.7456 19.6968 21.6809L18.9254 18.3456C18.719 17.4439 19.0558 16.2814 19.7077 15.6187L22.402 12.9244C22.9343 12.392 23.1733 11.8706 23.0647 11.512C22.9452 11.1535 22.4454 10.8602 21.7067 10.7407L18.241 10.1649C17.4045 10.0236 16.4919 9.35006 16.1116 8.58956L14.1995 4.76537C13.8519 4.07006 13.4173 3.65722 13.0371 3.65722C12.6568 3.65722 12.2222 4.07006 11.8854 4.76537L9.96248 8.58956C9.58224 9.35006 8.66964 10.0236 7.8331 10.1649L4.37829 10.7407C3.63952 10.8602 3.13977 11.1535 3.02026 11.512C2.90075 11.8706 3.15063 12.4029 3.68298 12.9244L6.3773 15.6187C7.02915 16.2706 7.36594 17.4439 7.15952 18.3456L6.38816 21.6809C6.13828 22.7565 6.31211 23.3214 6.54026 23.4844C6.76841 23.6473 7.35507 23.6365 8.31112 23.0824L11.5595 21.1594C11.9724 20.9096 12.5047 20.7792 13.0371 20.7792Z" fill="#292D32"/>
</svg>
