<svg width="33" height="33" viewBox="0 0 33 33" fill="none" xmlns="http://www.w3.org/2000/svg">
<g clip-path="url(#clip0_202_9)">
<path d="M30.6014 22.814C30.4414 22.424 30.2914 22.014 30.1314 21.664L29.3914 19.994L29.3614 19.964C27.1614 15.164 24.8114 10.284 22.3214 5.48404L22.2214 5.28404C21.9714 4.81404 21.7214 4.29404 21.4614 3.81404C21.1414 3.24404 20.8314 2.63404 20.3214 2.05404C19.8243 1.44717 19.1986 0.958227 18.4896 0.622494C17.7806 0.28676 17.0059 0.11261 16.2214 0.11261C15.4369 0.11261 14.6622 0.28676 13.9532 0.622494C13.2442 0.958227 12.6185 1.44717 12.1214 2.05404C11.6514 2.63404 11.3014 3.24404 10.9814 3.81404C10.7314 4.33404 10.4814 4.84404 10.2214 5.31404L10.1214 5.51404C7.67141 10.314 5.28141 15.194 3.08141 19.994L3.02141 20.054C2.80141 20.574 2.54141 21.114 2.29141 21.694C2.13141 22.044 1.97141 22.424 1.81141 22.844C1.37944 23.9438 1.2415 25.1372 1.41118 26.3065C1.58086 27.4759 2.05231 28.5808 2.77905 29.5124C3.5058 30.4441 4.46276 31.1703 5.55563 31.6195C6.6485 32.0687 7.83956 32.2253 9.01141 32.074C10.1349 31.9261 11.2167 31.5519 12.1914 30.974C13.4914 30.244 14.7414 29.184 16.1414 27.654C17.5414 29.184 18.8214 30.244 20.0914 30.984C21.3127 31.7009 22.6958 32.0965 24.1114 32.134C25.7508 32.1408 27.3372 31.5543 28.5779 30.4828C29.8186 29.4112 30.6296 27.9269 30.8614 26.304C31.1293 25.1378 31.0386 23.9179 30.6014 22.804V22.814ZM16.2414 24.474C14.5214 22.274 13.4014 20.254 13.0214 18.524C12.864 17.883 12.83 17.2178 12.9214 16.564C12.9914 16.054 13.1814 15.604 13.4414 15.224C14.0414 14.354 15.0914 13.814 16.2414 13.814C16.7875 13.7974 17.3293 13.9165 17.818 14.1609C18.3067 14.4052 18.7271 14.7671 19.0414 15.214C19.3014 15.614 19.4914 16.054 19.5514 16.564C19.6514 17.144 19.6114 17.814 19.4514 18.524C19.0714 20.224 17.9514 22.264 16.2414 24.474ZM28.9814 25.954C28.8678 26.778 28.5403 27.5578 28.0314 28.2157C27.5226 28.8737 26.8503 29.3868 26.0814 29.704C25.3214 30.024 24.4814 30.114 23.6614 30.024C22.8614 29.924 22.0614 29.664 21.2414 29.184C19.8799 28.3425 18.6557 27.297 17.6114 26.084C19.7114 23.484 20.9814 21.114 21.4614 19.004C21.6914 18.004 21.7214 17.104 21.6214 16.274C21.4965 15.4873 21.2032 14.7369 20.7614 14.074C20.257 13.3553 19.5838 12.7715 18.8008 12.3739C18.0179 11.9764 17.1493 11.7772 16.2714 11.794C14.4214 11.794 12.7714 12.654 11.7714 14.064C11.3212 14.7252 11.0303 15.4816 10.9214 16.274C10.7914 17.114 10.8214 18.044 11.0814 19.004C11.5614 21.114 12.8614 23.514 14.9314 26.104C13.9049 27.3402 12.6778 28.3949 11.3014 29.224C10.4714 29.704 9.68141 29.954 8.88141 30.054C7.63729 30.2134 6.38056 29.8753 5.38437 29.1132C4.38818 28.351 3.73306 27.2265 3.56141 25.984C3.46141 25.184 3.53141 24.384 3.85141 23.484C3.95141 23.164 4.10141 22.844 4.26141 22.464C4.48141 21.944 4.74141 21.404 4.99141 20.864L5.03141 20.794C7.19141 16.024 9.55141 11.154 12.0014 6.38404L12.1014 6.18404C12.3514 5.70404 12.6014 5.19404 12.8614 4.71404C13.1214 4.20404 13.4014 3.71404 13.7614 3.31404C14.073 2.94206 14.4624 2.64291 14.9021 2.43766C15.3418 2.2324 15.8212 2.12603 16.3064 2.12603C16.7917 2.12603 17.271 2.2324 17.7107 2.43766C18.1504 2.64291 18.5398 2.94206 18.8514 3.31404C19.2014 3.71404 19.4914 4.20404 19.7514 4.71404C20.0014 5.19404 20.2514 5.71404 20.5114 6.18404L20.6114 6.38404C23.0514 11.154 25.4114 16.024 27.6114 20.794L27.6414 20.824C27.9014 21.344 28.1214 21.924 28.3714 22.424C28.5314 22.814 28.6914 23.124 28.7914 23.454C28.9814 24.354 29.0814 25.154 28.9814 25.954V25.954Z" fill="#FF385C"/>
</g>
<defs>
<clipPath id="clip0_202_9">
<rect width="30" height="32" fill="white" transform="translate(1.36145 0.134033)"/>
</clipPath>
</defs>
</svg>
