<svg width="1024" height="1024" viewBox="0 0 1024 1024" fill="none" xmlns="http://www.w3.org/2000/svg">
<path d="M0 190.11C0 85.115 85.115 0 190.11 0H833.89C938.885 0 1024 85.115 1024 190.11V833.89C1024 938.885 938.885 1024 833.89 1024H190.11C85.115 1024 0 938.885 0 833.89V190.11Z" fill="white"/>
<path d="M527.955 532.961L500.995 535.338L503.313 508.377C511.56 412.228 523.966 399.818 528.654 395.135L838.896 84.9033C823.714 80.1751 807.555 77.6318 790.838 77.6318H239.701C150.343 77.6318 77.6317 150.321 77.6317 239.723V790.772C77.6317 880.167 150.343 952.863 239.701 952.863H790.816C880.189 952.863 952.863 880.167 952.863 790.772V239.701C952.863 226.282 951.045 213.328 947.958 200.856L641.135 507.678C636.536 512.274 624.329 524.484 527.955 532.961Z" fill="#6297FF"/>
<path d="M279.5 634.4C301.7 634.4 321.1 638.8 337.7 647.6C354.3 656.4 367.1 668.8 376.1 684.8C385.3 700.6 389.9 718.9 389.9 739.7C389.9 760.3 385.3 778.6 376.1 794.6C367.1 810.6 354.2 823 337.4 831.8C320.8 840.6 301.5 845 279.5 845H200.6V634.4H279.5ZM276.2 800.6C295.6 800.6 310.7 795.3 321.5 784.7C332.3 774.1 337.7 759.1 337.7 739.7C337.7 720.3 332.3 705.2 321.5 694.4C310.7 683.6 295.6 678.2 276.2 678.2H251.9V800.6H276.2ZM606.969 845H555.669L469.869 715.1V845H418.569V634.4H469.869L555.669 764.9V634.4H606.969V845Z" fill="white"/>
</svg>
